<svg xmlns="http://www.w3.org/2000/svg" xmlns:xlink="http://www.w3.org/1999/xlink" width="500" zoomAndPan="magnify" viewBox="0 0 375 374.999991" height="500" preserveAspectRatio="xMidYMid meet" version="1.0"><defs><filter x="0%" y="0%" width="100%" height="100%" id="id1"><feColorMatrix values="0 0 0 0 1 0 0 0 0 1 0 0 0 0 1 0 0 0 1 0" color-interpolation-filters="sRGB"/></filter><clipPath id="id2"><path d="M 81 35.855469 L 375 35.855469 L 375 329 L 81 329 Z M 81 35.855469 " clip-rule="nonzero"/></clipPath><mask id="id3"><g filter="url(#id1)"><rect x="-37.5" width="450" fill="#000000" y="-37.499999" height="449.999989" fill-opacity="0.698"/></g></mask><clipPath id="id4"><path d="M 1 0.855469 L 294 0.855469 L 294 293.800781 L 1 293.800781 Z M 1 0.855469 " clip-rule="nonzero"/></clipPath><clipPath id="id5"><rect x="0" width="294" y="0" height="294"/></clipPath><clipPath id="id6"><path d="M 0 35.855469 L 294 35.855469 L 294 330 L 0 330 Z M 0 35.855469 " clip-rule="nonzero"/></clipPath><mask id="id7"><g filter="url(#id1)"><rect x="-37.5" width="450" fill="#000000" y="-37.499999" height="449.999989" fill-opacity="0.698"/></g></mask><clipPath id="id8"><path d="M 0 0.855469 L 293 0.855469 L 293 294 L 0 294 Z M 0 0.855469 " clip-rule="nonzero"/></clipPath><clipPath id="id9"><rect x="0" width="294" y="0" height="295"/></clipPath></defs><g clip-path="url(#id2)"><g mask="url(#id3)"><g transform="matrix(1, 0, 0, 1, 81, 35)"><g clip-path="url(#id5)"><g clip-path="url(#id4)"><path fill="#085fce" d="M 1.402344 106.269531 C 1.402344 78.09375 12.363281 51.605469 32.269531 31.683594 C 52.8125 11.117188 79.800781 0.835938 106.785156 0.835938 C 133.773438 0.835938 160.757812 11.117188 181.300781 31.683594 L 263.097656 113.554688 C 283.003906 133.476562 293.964844 159.964844 293.964844 188.140625 C 293.964844 216.316406 283.003906 242.804688 263.097656 262.726562 C 222.011719 303.855469 155.15625 303.855469 114.066406 262.726562 L 32.269531 180.855469 C 12.363281 160.933594 1.402344 134.441406 1.402344 106.269531 Z M 1.402344 106.269531 " fill-opacity="1" fill-rule="nonzero"/></g></g></g></g></g><g clip-path="url(#id6)"><g mask="url(#id7)"><g transform="matrix(1, 0, 0, 1, 0, 35)"><g clip-path="url(#id9)"><g clip-path="url(#id8)"><path fill="#3de2ff" d="M 0.0351562 188.140625 C 0.0351562 159.964844 10.996094 133.476562 30.902344 113.554688 L 112.699219 31.683594 C 133.242188 11.117188 160.226562 0.835938 187.214844 0.835938 C 214.199219 0.835938 241.1875 11.117188 261.730469 31.683594 C 281.636719 51.605469 292.597656 78.09375 292.597656 106.269531 C 292.597656 134.441406 281.636719 160.933594 261.730469 180.855469 L 179.933594 262.726562 C 138.847656 303.855469 71.988281 303.855469 30.898438 262.726562 C 10.996094 242.804688 0.0351562 216.316406 0.0351562 188.140625 Z M 0.0351562 188.140625 " fill-opacity="1" fill-rule="nonzero"/></g></g></g></g></g></svg>